HIERARCHY
ROOT Hips
{
	OFFSET 0.000000 0.000000 0.000000 
	CHANNELS 6 Xposition Yposition Zposition Yrotation Zrotation Xrotation 
	JOINT Lumbar
	{
		OFFSET 0.000000 0.000000 0.000000 
		CHANNELS 3 Zrotation Xrotation Yrotation
		JOINT Neck
		{
			OFFSET 0.000000 0.445665 0.000000 
			CHANNELS 3 Zrotation Xrotation Yrotation
			End Site
			{
				OFFSET 0.000000 0.227535 0.000000 
			}
		}
		JOINT RightShoulder
		{
			OFFSET 0.019635 0.377685 0.194865 
			CHANNELS 3 Zrotation Xrotation Yrotation
			JOINT RightElbow
			{
				OFFSET 0.000000 -0.243375 0.000000 
				CHANNELS 2 Zrotation Yrotation
				JOINT RightWrist
				{
					OFFSET 0.000000 -0.264825 0.000000 
					CHANNELS 2 Zrotation Xrotation
					End Site
					{
						OFFSET 0.006600 -0.176220 0.000990 
					}
				}
			}
		}
		JOINT LeftShoulder
		{
			OFFSET 0.019635 0.377685 -0.194865 
			CHANNELS 3 Zrotation Xrotation Yrotation
			JOINT LeftElbow
			{
				OFFSET 0.000000 -0.243375 0.000000 
				CHANNELS 2 Zrotation Yrotation
				JOINT LeftWrist
				{
					OFFSET 0.000000 -0.264825 0.000000 
					CHANNELS 2 Zrotation Xrotation
					End Site
					{
						OFFSET 0.006600 -0.176220 -0.000990 
					}
				}
			}
		}
	}
	JOINT RightHip
	{
		OFFSET 0.052140 -0.069960 0.075570 
		CHANNELS 3 Zrotation Xrotation Yrotation
		JOINT RightKnee
		{
			OFFSET 0.000000 -0.402270 0.000000 
			CHANNELS 1 Zrotation
			JOINT RightAnkle
			{
				OFFSET 0.000000 -0.404085 0.000000 
				CHANNELS 3 Zrotation Xrotation Yrotation
				End Site
				{
					OFFSET 0.204105 -0.089430 0.008415 
				}
			}
		}
	}
	JOINT LeftHip
	{
		OFFSET 0.052140 -0.069960 -0.075570 
		CHANNELS 3 Zrotation Xrotation Yrotation
		JOINT LeftKnee
		{
			OFFSET 0.000000 -0.402270 0.000000 
			CHANNELS 1 Zrotation
			JOINT LeftAnkle
			{
				OFFSET 0.000000 -0.404085 0.000000 
				CHANNELS 3 Zrotation Xrotation Yrotation
				End Site
				{
					OFFSET 0.204105 -0.089430 -0.008415 
				}
			}
		}
	}
}
MOTION
Frames: 19
Frame Time: 0.02
-0.70738 -0.46254 -0.25063 38.80346 53.43723 -15.61055 13.24513 1.17793 -4.29441 -17.15125 25.69393 -2.11994 22.9334 -21.61063 55.59965 8.0559 89.74243 1.42567 9.15237 29.35425 25.2933 -55.63158 6.32702 -111.3718 10.47934 -5.12402 25.03225 -11.69576 -6.76375 -46.20471 -19.18893 -1.1279 -3.3616 30.56053 8.65767 -4.28972 -53.429 -19.96336 1.63247 3.6733
-0.70752 -0.46229 -0.25054 38.86201 53.55061 -15.56875 13.32295 1.20522 -4.29914 -17.06555 25.26822 -2.11994 23.16693 -21.59361 55.60416 8.07019 88.84289 1.32642 9.3544 30.27834 25.30134 -55.63156 6.41441 -111.46581 10.62768 -5.07928 24.70216 -11.66616 -6.84495 -45.48872 -19.10038 -1.14571 -3.3666 30.31662 8.6027 -4.03384 -52.86686 -19.86341 1.65943 3.68225
-0.70765 -0.46202 -0.25051 38.90538 53.65589 -15.52539 13.42364 1.27957 -4.34409 -16.99927 24.66223 -2.11994 23.4576 -21.55363 55.60707 8.09119 87.80838 1.19503 9.61108 31.19144 25.36226 -55.63165 6.66793 -111.18946 10.71062 -5.05151 24.32865 -11.62446 -6.98636 -44.64515 -18.99809 -1.16923 -3.37398 30.04911 8.56966 -3.72638 -52.17448 -19.74058 1.69289 3.69341
-0.70779 -0.46175 -0.25046 38.95384 53.76323 -15.48297 13.51473 1.33121 -4.3715 -16.9193 24.14693 -2.11994 23.7188 -21.52141 55.61067 8.11084 87.00671 1.10479 9.82237 32.09569 25.4016 -55.63169 6.85102 -111.07862 10.81779 -5.0131 23.97303 -11.58432 -7.09725 -43.84078 -18.90576 -1.18913 -3.37994 29.79086 8.52031 -3.45961 -51.51811 -19.6315 1.72191 3.70292
-0.70794 -0.46149 -0.25038 39.01022 53.87767 -15.43912 13.60192 1.38791 -4.39556 -16.85884 23.59365 -2.11994 23.99722 -21.50055 55.61452 8.12353 85.50081 0.90532 10.11832 33.06891 25.42986 -55.63173 7.01062 -110.99022 10.94961 -4.98468 23.62567 -11.56053 -7.21926 -43.11891 -18.79627 -1.21405 -3.38769 29.53842 8.49545 -3.12494 -50.96047 -19.50809 1.75752 3.71527
-0.70805 -0.46121 -0.25037 39.04682 53.97537 -15.39842 13.70299 1.44542 -4.43596 -16.76328 23.07686 -2.11994 24.25154 -21.45069 55.61743 8.15161 85.40418 0.92248 10.25343 33.89034 25.49359 -55.6318 7.25806 -110.76321 11.01492 -4.94116 23.24949 -11.49984 -7.33393 -42.18969 -18.72088 -1.22902 -3.39181 29.2682 8.42669 -2.91299 -50.16359 -19.40909 1.78064 3.72209
-0.70806 -0.46086 -0.2505 39.02682 54.02806 -15.36228 13.83513 1.49397 -4.51522 -16.55971 22.70717 -2.11994 24.43597 -21.32473 55.61807 8.22804 89.45518 1.57245 9.90974 34.31308 25.64772 -55.63191 7.72388 -110.24277 10.90083 -4.84196 22.81778 -11.3409 -7.40964 -40.76643 -18.73635 -1.21924 -3.38765 28.95697 8.21829 -3.10988 -48.76557 -19.38435 1.76989 3.71429
-0.70802 -0.46048 -0.25069 38.98831 54.06434 -15.33017 13.98065 1.54173 -4.60894 -16.3216 22.38022 -2.11994 24.59201 -21.17064 55.61781 8.3184 94.88841 2.43653 9.40621 34.5786 25.83494 -55.63205 8.2696 -109.59502 10.72385 -4.72885 22.35597 -11.14508 -7.47991 -39.12923 -18.79222 -1.19629 -3.37809 28.62808 7.96713 -3.42217 -47.12572 -19.38508 1.74591 3.70069
-0.70799 -0.46011 -0.25086 38.96193 54.10851 -15.29922 14.12137 1.58972 -4.69384 -16.10322 22.03237 -2.11994 24.75384 -21.03047 55.61798 8.39753 99.54152 3.1849 8.98994 34.90349 26.00353 -55.63219 8.76868 -109.00396 10.58306 -4.62903 21.89949 -10.96583 -7.55151 -37.56052 -18.82852 -1.17942 -3.37111 28.30614 7.74483 -3.64302 -45.57952 -19.37293 1.72657 3.68891
-0.70801 -0.45973 -0.25102 38.91953 54.15036 -15.25574 14.25811 1.63989 -4.78974 -15.86756 21.68426 -2.11994 24.94761 -20.88474 55.61804 8.49753 104.82794 4.00962 8.51417 35.28022 26.18878 -55.6323 9.31789 -108.40221 10.40809 -4.50114 21.47751 -10.78728 -7.6173 -36.11298 -18.85171 -1.17132 -3.36883 27.98884 7.48526 -4.02339 -44.09998 -19.36416 1.71333 3.68041
-0.70793 -0.45938 -0.2512 38.90605 54.19354 -15.23916 14.40524 1.68471 -4.86551 -15.6606 21.34942 -2.11994 25.06748 -20.7442 55.61812 8.5573 109.12967 4.7269 8.12324 35.51042 26.34689 -55.63246 9.77852 -107.80089 10.28997 -4.4272 20.9761 -10.59826 -7.70906 -34.35851 -18.93423 -1.13051 -3.34899 27.65682 7.29063 -4.10372 -42.4226 -19.35638 1.68407 3.66396
-0.70759 -0.45909 -0.25144 38.97927 54.24214 -15.29729 14.58415 1.71493 -4.88303 -15.5315 21.04019 -2.11994 24.98886 -20.62519 55.61848 8.5025 110.33545 5.0924 8.009 35.38511 26.41859 -55.63276 9.98293 -107.20227 10.34645 -4.51426 20.27435 -10.39326 -7.73423 -31.8609 -18.97341 -1.10048 -3.33805 27.29857 7.3048 -3.29844 -40.28635 -19.33663 1.61421 3.62589
-0.70715 -0.45884 -0.25169 39.08185 54.2932 -15.38206 14.77166 1.73957 -4.87941 -15.43429 20.74404 -2.11994 24.83679 -20.51249 55.61889 8.40676 110.50972 5.343 7.98474 35.11579 26.46221 -55.63312 10.09321 -106.61579 10.4622 -4.65444 19.49382 -10.17854 -7.80936 -29.05671 -19.10281 -1.02102 -3.29981 26.92422 7.38197 -2.19735 -37.95464 -19.32271 1.52847 3.58114
-0.70677 -0.45857 -0.25192 39.16962 54.34452 -15.45372 14.95101 1.7666 -4.88472 -15.32874 20.44302 -2.11994 24.71897 -20.39678 55.61927 8.3297 111.1832 5.64817 7.91683 34.90544 26.52061 -55.63344 10.24045 -106.04509 10.54965 -4.76454 18.73934 -9.96552 -7.95559 -26.35435 -19.32675 -0.89822 -3.23638 26.55087 7.41792 -1.24522 -35.69468 -19.30666 1.44986 3.53898
-0.70633 -0.45828 -0.2522 39.26311 54.38905 -15.52985 15.14908 1.79433 -4.89353 -15.19573 20.13818 -2.11994 24.59658 -20.28051 55.61966 8.2526 111.77933 5.951 7.85505 34.71692 26.57164 -55.63381 10.41484 -105.38001 10.64061 -4.89913 18.01647 -9.76187 -7.71444 -23.78638 -19.00045 -1.04723 -3.32864 26.20405 7.50623 -0.21743 -33.49873 -19.27278 1.3716 3.49469
-0.706 -0.45806 -0.25238 39.3517 54.44904 -15.60282 15.30968 1.81916 -4.8897 -15.12832 19.84469 -2.11994 24.46657 -20.16746 55.62005 8.16595 112.26988 6.22845 7.8039 34.45078 26.63097 -55.63408 10.50964 -104.91584 10.73918 -4.99566 17.22009 -9.53789 -8.28104 -20.88901 -19.8153 -0.62549 -3.09377 25.7978 7.50013 0.70151 -31.12566 -19.29781 1.28844 3.45813
-0.70593 -0.45802 -0.25231 39.4214 54.54702 -15.66197 15.36737 1.83833 -4.85711 -15.23097 19.57253 -2.11994 24.3339 -20.06034 55.62046 8.06069 112.74629 6.46424 7.76111 34.00663 26.71919 -55.63407 10.4038 -105.0068 10.84458 -4.9727 16.14842 -9.25117 -11.16336 -16.98146 -23.98345 1.42103 -1.93138 25.23837 7.22546 1.4512 -28.32149 -19.29914 1.20163 3.40177
-0.70598 -0.45805 -0.25215 39.48502 54.66147 -15.7169 15.38633 1.85465 -4.8123 -15.39929 19.31256 -2.11994 24.19614 -19.95673 55.62086 7.94761 113.14041 6.67714 7.72654 33.49014 26.81669 -55.63395 10.2214 -105.29947 10.95579 -4.90992 15.02222 -8.94593 -14.84028 -12.78623 -29.25638 4.02928 -0.44642 24.61989 6.85248 2.04808 -25.34822 -19.3887 1.11012 3.36031
-0.70599 -0.45805 -0.25203 39.55019 54.77098 -15.77261 15.42141 1.87158 -4.77234 -15.53989 19.05107 -2.11994 24.06064 -19.85247 55.62123 7.83953 113.54881 6.89946 7.6883 33.00655 26.91037 -55.63389 10.07619 -105.49844 11.06457 -4.8664 13.98187 -8.65556 -18.08748 -8.83979 -33.87433 6.33981 0.87045 24.02216 6.51969 2.57632 -22.4431 -19.56574 1.01596 3.34155
